<svg xmlns="http://www.w3.org/2000/svg" xmlns:xlink="http://www.w3.org/1999/xlink" width="103" zoomAndPan="magnify" viewBox="0 0 77.25 193.500001" height="258" preserveAspectRatio="xMidYMid meet" version="1.0"><defs><clipPath id="fab08f319e"><path d="M 32.777344 139.964844 L 43.6875 139.964844 L 43.6875 191.730469 L 32.777344 191.730469 Z M 32.777344 139.964844 " clip-rule="nonzero"/></clipPath><clipPath id="c240ae7b8b"><path d="M 32.777344 80.308594 L 43.6875 80.308594 L 43.6875 132.074219 L 32.777344 132.074219 Z M 32.777344 80.308594 " clip-rule="nonzero"/></clipPath><clipPath id="85e3e84109"><path d="M 60.757812 73.011719 L 63.496094 73.011719 L 63.496094 104.765625 L 60.757812 104.765625 Z M 60.757812 73.011719 " clip-rule="nonzero"/></clipPath><clipPath id="a7a9f09b8e"><path d="M 56.753906 97.386719 L 62.128906 97.386719 L 62.128906 104.765625 L 56.753906 104.765625 Z M 56.753906 97.386719 " clip-rule="nonzero"/></clipPath><clipPath id="33fdecb179"><path d="M 17.289062 90.8125 L 58.308594 90.8125 L 58.308594 142.578125 L 17.289062 142.578125 Z M 17.289062 90.8125 " clip-rule="nonzero"/></clipPath><clipPath id="35040cb48c"><path d="M 54.480469 49.378906 L 76.464844 49.378906 L 76.464844 79.691406 L 54.480469 79.691406 Z M 54.480469 49.378906 " clip-rule="nonzero"/></clipPath><clipPath id="3406df22b7"><path d="M 58.195312 49.378906 L 72.75 49.378906 C 73.734375 49.378906 74.679688 49.769531 75.375 50.464844 C 76.074219 51.160156 76.464844 52.105469 76.464844 53.089844 L 76.464844 75.910156 C 76.464844 76.894531 76.074219 77.839844 75.375 78.535156 C 74.679688 79.234375 73.734375 79.625 72.75 79.625 L 58.195312 79.625 C 57.210938 79.625 56.265625 79.234375 55.570312 78.535156 C 54.871094 77.839844 54.480469 76.894531 54.480469 75.910156 L 54.480469 53.089844 C 54.480469 52.105469 54.871094 51.160156 55.570312 50.464844 C 56.265625 49.769531 57.210938 49.378906 58.195312 49.378906 Z M 58.195312 49.378906 " clip-rule="nonzero"/></clipPath><clipPath id="2d22c4199d"><path d="M 0 75.675781 L 76.464844 75.675781 L 76.464844 81.050781 L 0 81.050781 Z M 0 75.675781 " clip-rule="nonzero"/></clipPath><clipPath id="1645082581"><path d="M 0 58.304688 L 23.140625 58.304688 L 23.140625 75.664062 L 0 75.664062 Z M 0 58.304688 " clip-rule="nonzero"/></clipPath><clipPath id="4b1e6de784"><path d="M 17.355469 58.304688 L 5.78125 58.304688 L -0.00390625 75.664062 L 23.140625 75.664062 Z M 17.355469 58.304688 " clip-rule="nonzero"/></clipPath><clipPath id="f8be6f5287"><path d="M 58.308594 52.539062 L 73.398438 52.539062 L 73.398438 56.960938 L 58.308594 56.960938 Z M 58.308594 52.539062 " clip-rule="nonzero"/></clipPath><clipPath id="8df5a71624"><path d="M 60.515625 52.539062 L 71.179688 52.539062 C 72.402344 52.539062 73.390625 53.527344 73.390625 54.75 C 73.390625 55.96875 72.402344 56.960938 71.179688 56.960938 L 60.515625 56.960938 C 59.296875 56.960938 58.308594 55.96875 58.308594 54.75 C 58.308594 53.527344 59.296875 52.539062 60.515625 52.539062 Z M 60.515625 52.539062 " clip-rule="nonzero"/></clipPath><clipPath id="b81798c34b"><path d="M 58.308594 58.3125 L 73.398438 58.3125 L 73.398438 62.734375 L 58.308594 62.734375 Z M 58.308594 58.3125 " clip-rule="nonzero"/></clipPath><clipPath id="94be5c84a2"><path d="M 60.515625 58.3125 L 71.179688 58.3125 C 72.402344 58.3125 73.390625 59.304688 73.390625 60.523438 C 73.390625 61.746094 72.402344 62.734375 71.179688 62.734375 L 60.515625 62.734375 C 59.296875 62.734375 58.308594 61.746094 58.308594 60.523438 C 58.308594 59.304688 59.296875 58.3125 60.515625 58.3125 Z M 60.515625 58.3125 " clip-rule="nonzero"/></clipPath><clipPath id="0b4718c761"><path d="M 58.308594 64.5 L 73.398438 64.5 L 73.398438 68.921875 L 58.308594 68.921875 Z M 58.308594 64.5 " clip-rule="nonzero"/></clipPath><clipPath id="d3e14c8d97"><path d="M 60.515625 64.5 L 71.179688 64.5 C 72.402344 64.5 73.390625 65.492188 73.390625 66.710938 C 73.390625 67.933594 72.402344 68.921875 71.179688 68.921875 L 60.515625 68.921875 C 59.296875 68.921875 58.308594 67.933594 58.308594 66.710938 C 58.308594 65.492188 59.296875 64.5 60.515625 64.5 Z M 60.515625 64.5 " clip-rule="nonzero"/></clipPath><clipPath id="a9c3b17271"><path d="M 32.425781 14.804688 L 43.6875 14.804688 L 43.6875 79.351562 L 32.425781 79.351562 Z M 32.425781 14.804688 " clip-rule="nonzero"/></clipPath><clipPath id="46a4b217b4"><path d="M 9.640625 0.683594 L 50.769531 0.683594 L 50.769531 38.695312 L 9.640625 38.695312 Z M 9.640625 0.683594 " clip-rule="nonzero"/></clipPath><clipPath id="c758030e9c"><path d="M 30.34375 0.683594 L 44.59375 0.683594 C 46.613281 0.683594 48.507812 1.675781 49.652344 3.339844 C 50.800781 5.003906 51.058594 7.125 50.339844 9.011719 L 42.214844 30.363281 C 40.304688 35.378906 35.496094 38.695312 30.132812 38.695312 L 15.878906 38.695312 C 13.859375 38.695312 11.96875 37.703125 10.820312 36.039062 C 9.675781 34.375 9.417969 32.253906 10.136719 30.363281 L 18.261719 9.011719 C 20.167969 3.996094 24.976562 0.683594 30.34375 0.683594 Z M 30.34375 0.683594 " clip-rule="nonzero"/></clipPath><clipPath id="59adb017e5"><path d="M 9.679688 0.683594 L 51 0.683594 L 51 38.566406 L 9.679688 38.566406 Z M 9.679688 0.683594 " clip-rule="nonzero"/></clipPath><clipPath id="77c092e51b"><path d="M 30.34375 0.683594 L 44.59375 0.683594 C 46.613281 0.683594 48.503906 1.675781 49.652344 3.339844 C 50.800781 5.003906 51.054688 7.125 50.335938 9.011719 L 42.214844 30.363281 C 40.304688 35.378906 35.496094 38.691406 30.132812 38.691406 L 15.882812 38.691406 C 13.859375 38.691406 11.96875 37.699219 10.820312 36.035156 C 9.675781 34.371094 9.417969 32.25 10.136719 30.363281 L 18.261719 9.011719 C 20.167969 3.996094 24.976562 0.683594 30.34375 0.683594 Z M 30.34375 0.683594 " clip-rule="nonzero"/></clipPath></defs><g clip-path="url(#fab08f319e)"><path fill="#cccccc" d="M 32.777344 139.964844 L 43.6875 139.964844 L 43.6875 191.75 L 32.777344 191.75 Z M 32.777344 139.964844 " fill-opacity="1" fill-rule="nonzero"/></g><g clip-path="url(#c240ae7b8b)"><path fill="#cccccc" d="M 32.777344 80.308594 L 43.6875 80.308594 L 43.6875 132.09375 L 32.777344 132.09375 Z M 32.777344 80.308594 " fill-opacity="1" fill-rule="nonzero"/></g><g clip-path="url(#85e3e84109)"><path fill="#4c4c4c" d="M 60.757812 73.011719 L 63.496094 73.011719 L 63.496094 104.761719 L 60.757812 104.761719 Z M 60.757812 73.011719 " fill-opacity="1" fill-rule="nonzero"/></g><g clip-path="url(#a7a9f09b8e)"><path fill="#4c4c4c" d="M 56.753906 97.386719 L 62.128906 97.386719 L 62.128906 104.773438 L 56.753906 104.773438 Z M 56.753906 97.386719 " fill-opacity="1" fill-rule="nonzero"/></g><g clip-path="url(#33fdecb179)"><path fill="#cccccc" d="M 17.289062 90.8125 L 58.308594 90.8125 L 58.308594 142.566406 L 17.289062 142.566406 Z M 17.289062 90.8125 " fill-opacity="1" fill-rule="nonzero"/></g><g clip-path="url(#35040cb48c)"><g clip-path="url(#3406df22b7)"><path fill="#cccccc" d="M 54.480469 49.378906 L 76.464844 49.378906 L 76.464844 79.605469 L 54.480469 79.605469 Z M 54.480469 49.378906 " fill-opacity="1" fill-rule="nonzero"/></g></g><g clip-path="url(#2d22c4199d)"><path fill="#cccccc" d="M 0 75.675781 L 76.457031 75.675781 L 76.457031 81.050781 L 0 81.050781 Z M 0 75.675781 " fill-opacity="1" fill-rule="nonzero"/></g><g clip-path="url(#1645082581)"><g clip-path="url(#4b1e6de784)"><path fill="#a6a6a6" d="M 23.140625 75.664062 L 0.015625 75.664062 L 0.015625 58.304688 L 23.140625 58.304688 Z M 23.140625 75.664062 " fill-opacity="1" fill-rule="nonzero"/></g></g><g clip-path="url(#f8be6f5287)"><g clip-path="url(#8df5a71624)"><path fill="#a6a6a6" d="M 58.308594 52.539062 L 73.382812 52.539062 L 73.382812 56.960938 L 58.308594 56.960938 Z M 58.308594 52.539062 " fill-opacity="1" fill-rule="nonzero"/></g></g><g clip-path="url(#b81798c34b)"><g clip-path="url(#94be5c84a2)"><path fill="#a6a6a6" d="M 58.308594 58.3125 L 73.382812 58.3125 L 73.382812 62.734375 L 58.308594 62.734375 Z M 58.308594 58.3125 " fill-opacity="1" fill-rule="nonzero"/></g></g><g clip-path="url(#0b4718c761)"><g clip-path="url(#d3e14c8d97)"><path fill="#a6a6a6" d="M 58.308594 64.5 L 73.382812 64.5 L 73.382812 68.921875 L 58.308594 68.921875 Z M 58.308594 64.5 " fill-opacity="1" fill-rule="nonzero"/></g></g><g clip-path="url(#a9c3b17271)"><path fill="#cccccc" d="M 32.425781 14.804688 L 43.6875 14.804688 L 43.6875 79.335938 L 32.425781 79.335938 Z M 32.425781 14.804688 " fill-opacity="1" fill-rule="nonzero"/></g><g clip-path="url(#46a4b217b4)"><g clip-path="url(#c758030e9c)"><path fill="#4c88e2" d="M 6.96875 0.683594 L 53.441406 0.683594 L 53.441406 38.695312 L 6.96875 38.695312 Z M 6.96875 0.683594 " fill-opacity="1" fill-rule="nonzero"/></g></g><g clip-path="url(#59adb017e5)"><g clip-path="url(#77c092e51b)"><path stroke-linecap="butt" transform="matrix(0.742788, 0, 0, 0.742788, 6.968355, 0.682703)" fill="none" stroke-linejoin="miter" d="M 31.469788 0.00119959 L 50.654255 0.00119959 C 53.373107 0.00119959 55.918414 1.33696 57.464531 3.577252 C 59.010647 5.817543 59.352476 8.673126 58.384838 11.213174 L 47.451585 39.958321 C 44.879983 46.710748 38.406277 51.170296 31.185808 51.170296 L 12.001341 51.170296 C 9.277231 51.170296 6.731923 49.834535 5.185807 47.594244 C 3.644949 45.353952 3.297862 42.49837 4.265499 39.958321 L 15.204011 11.213174 C 17.770354 4.460747 24.24406 0.00119959 31.469788 0.00119959 Z M 31.469788 0.00119959 " stroke="#4c4c4c" stroke-width="6" stroke-opacity="1" stroke-miterlimit="4"/></g></g><path stroke-linecap="butt" transform="matrix(0.742788, 0, 0, 0.742788, 17.770257, 23.54424)" fill="none" stroke-linejoin="miter" d="M -0.000977655 0.497884 L 28.907195 0.497884 " stroke="#ffffff" stroke-width="1" stroke-opacity="1" stroke-miterlimit="4"/><path stroke-linecap="butt" transform="matrix(0.742788, 0, 0, 0.742788, 21.713574, 15.372951)" fill="none" stroke-linejoin="miter" d="M 0.00170996 0.502354 L 28.909883 0.502354 " stroke="#ffffff" stroke-width="1" stroke-opacity="1" stroke-miterlimit="4"/><path stroke-linecap="butt" transform="matrix(0.742788, 0, 0, 0.742788, 24.328185, 7.654687)" fill="none" stroke-linejoin="miter" d="M -0.0000812108 0.501699 L 28.908092 0.501699 " stroke="#ffffff" stroke-width="1" stroke-opacity="1" stroke-miterlimit="4"/><path stroke-linecap="butt" transform="matrix(0.742788, 0, 0, 0.742788, 14.481657, 31.133318)" fill="none" stroke-linejoin="miter" d="M -0.00159953 0.498915 L 28.911832 0.498915 " stroke="#ffffff" stroke-width="1" stroke-opacity="1" stroke-miterlimit="4"/></svg>